<?xml version="1.0" standalone="no"?>
<!DOCTYPE svg PUBLIC "-//W3C//DTD SVG 20010904//EN"
 "http://www.w3.org/TR/2001/REC-SVG-20010904/DTD/svg10.dtd">
<svg version="1.0" xmlns="http://www.w3.org/2000/svg"
 width="500.000000pt" height="500.000000pt" viewBox="0 0 500.000000 500.000000"
 preserveAspectRatio="xMidYMid meet">
<metadata>
Created by potrace 1.14, written by Peter Selinger 2001-2017
</metadata>
<g transform="translate(0.000000,500.000000) scale(0.100000,-0.100000)"
fill="#000000" stroke="none">
<path d="M2310 4980 c-551 -24 -1110 -274 -1543 -689 -463 -445 -736 -1056
-753 -1688 -13 -455 62 -812 250 -1198 346 -708 1016 -1216 1785 -1354 241
-44 650 -46 881 -6 564 99 1119 420 1482 856 236 285 408 620 498 974 48 187
68 320 76 505 31 719 -219 1371 -716 1870 -353 354 -755 577 -1235 684 -209
47 -411 59 -725 46z m1230 -1065 c46 -24 52 -63 48 -302 l-3 -213 -28 -27 -27
-28 -350 -3 -350 -3 -2 -178 -3 -179 -159 177 c-88 97 -163 176 -167 176 -4 0
-78 -79 -165 -175 l-159 -174 -3 176 -2 177 -350 3 -350 3 -27 28 -28 27 -3
225 c-3 242 2 275 51 295 12 5 472 9 1035 9 883 1 1017 -1 1042 -14z m-869
-1636 l159 -174 -3 -433 -2 -434 -28 -24 -28 -24 -267 0 c-299 0 -303 1 -322
68 -6 23 -10 194 -10 442 l0 405 161 178 c89 98 166 176 172 174 6 -2 82 -82
168 -178z"/>
</g>
</svg>
