<?xml version="1.0" standalone="no"?>
<!DOCTYPE svg PUBLIC "-//W3C//DTD SVG 20010904//EN"
 "http://www.w3.org/TR/2001/REC-SVG-20010904/DTD/svg10.dtd">
<svg version="1.0" xmlns="http://www.w3.org/2000/svg"
 width="500.000000pt" height="500.000000pt" viewBox="0 0 500.000000 500.000000"
 preserveAspectRatio="xMidYMid meet">
<metadata>
Created by potrace 1.14, written by Peter Selinger 2001-2017
</metadata>
<g transform="translate(0.000000,500.000000) scale(0.100000,-0.100000)"
fill="#000000" stroke="none">
<path d="M2470 4703 c0 -3 16 -37 35 -74 26 -51 35 -82 35 -118 0 -32 5 -51
13 -54 24 -9 34 6 39 54 3 29 18 69 43 110 21 35 40 67 42 72 2 4 -8 7 -24 7
-23 0 -32 -8 -52 -45 -13 -25 -27 -45 -31 -45 -4 0 -15 20 -24 45 -10 25 -23
45 -29 46 -7 0 -20 2 -29 4 -10 2 -18 1 -18 -2z"/>
<path d="M2290 4691 c-37 -9 -32 -35 8 -39 17 -2 32 -6 33 -10 0 -4 2 -16 4
-27 2 -11 5 -47 6 -80 3 -77 6 -85 36 -85 22 0 24 3 19 38 -3 20 -6 66 -8 102
l-3 65 33 3 c24 3 32 8 32 23 0 18 -6 20 -67 18 -38 -2 -79 -5 -93 -8z"/>
<path d="M2719 4669 c0 -13 -2 -35 -5 -49 -13 -77 -24 -163 -22 -165 2 -1 13
-5 24 -9 23 -7 34 13 34 62 0 19 4 22 26 18 40 -8 92 18 100 48 16 64 -18 101
-104 112 -50 6 -52 5 -53 -17z m101 -44 c20 -24 3 -55 -31 -55 -25 0 -29 3
-27 28 1 15 3 30 5 35 7 12 40 8 53 -8z"/>
<path d="M2093 4666 c-48 -16 -73 -46 -77 -91 -10 -120 86 -193 180 -136 41
25 58 69 50 126 -13 82 -80 126 -153 101z m77 -58 c27 -29 31 -101 7 -124 -47
-46 -107 -6 -107 70 0 35 5 48 22 60 31 22 54 20 78 -6z"/>
<path d="M2951 4614 c-57 -47 -65 -148 -16 -194 29 -27 110 -39 144 -20 28 15
60 84 61 130 0 92 -117 144 -189 84z m97 -25 c40 -14 49 -51 26 -108 -11 -28
-24 -43 -40 -47 -29 -7 -69 16 -76 44 -7 26 17 94 39 109 20 15 14 15 51 2z"/>
<path d="M1892 4618 l-32 -9 1 -90 c0 -50 -1 -92 -3 -95 -3 -2 -28 30 -56 70
-51 73 -53 74 -83 66 -18 -5 -33 -11 -35 -12 -1 -2 14 -54 34 -116 28 -84 41
-112 54 -112 28 0 28 12 2 89 -14 41 -23 75 -21 77 2 2 25 -27 52 -66 50 -72
52 -74 79 -64 13 5 16 24 17 103 l1 96 30 -87 c27 -80 31 -87 49 -78 10 6 19
14 19 19 0 10 -67 212 -72 216 -2 1 -18 -2 -36 -7z"/>
<path d="M3181 4469 c-35 -90 -41 -113 -30 -120 28 -17 37 -8 69 76 18 47 36
88 41 90 8 5 79 -22 79 -30 0 -3 -16 -44 -35 -92 -19 -48 -34 -87 -32 -88 1
-1 11 -7 22 -13 19 -10 24 -3 66 103 l46 113 -26 12 c-23 10 -151 60 -155 60
0 0 -21 -50 -45 -111z"/>
<path d="M1524 4476 c-91 -40 -99 -147 -15 -203 27 -18 30 -24 17 -29 -17 -7
-22 -29 -8 -38 5 -3 27 4 50 15 35 17 40 24 32 39 -5 9 -23 23 -40 30 -59 24
-79 104 -35 139 35 27 77 12 99 -34 18 -38 20 -59 6 -84 -6 -13 -5 -24 3 -35
12 -16 15 -16 54 5 36 19 40 25 32 41 -7 14 -14 16 -27 9 -16 -8 -17 -5 -14
24 6 48 -24 105 -64 121 -41 17 -50 17 -90 0z"/>
<path d="M3447 4474 c-3 -4 -2 -15 4 -25 7 -15 1 -34 -28 -89 -23 -43 -43 -69
-52 -67 -9 1 -17 -5 -18 -13 -2 -10 13 -24 42 -38 58 -28 59 -28 51 8 -8 40
48 158 78 162 34 5 28 23 -15 46 -44 24 -52 26 -62 16z"/>
<path d="M3566 4403 c-7 -16 10 -37 37 -46 5 -1 -13 -40 -42 -86 -28 -45 -51
-86 -51 -91 0 -9 39 -25 45 -18 1 1 24 38 50 81 25 42 50 77 54 77 4 0 16 -6
27 -14 19 -14 44 -6 44 15 0 7 -141 99 -152 99 -3 0 -9 -8 -12 -17z"/>
<path d="M1346 4377 c-18 -13 -17 -16 9 -55 20 -30 26 -49 21 -67 -9 -37 -27
-31 -65 24 -29 43 -36 48 -51 38 -21 -12 -16 -27 28 -85 21 -28 23 -35 11 -43
-28 -18 -49 -8 -79 36 -27 40 -33 43 -50 32 -11 -6 -20 -14 -20 -17 0 -3 16
-26 35 -52 41 -55 71 -67 116 -44 32 16 33 16 54 -10 15 -18 27 -25 38 -21 21
8 22 31 2 47 -21 17 -19 25 10 54 34 34 32 72 -6 129 -17 26 -32 47 -33 47 -1
0 -10 -6 -20 -13z"/>
<path d="M3794 4250 c-5 -5 -51 -36 -102 -69 -92 -58 -93 -59 -70 -75 20 -14
24 -14 46 0 22 15 26 14 62 -10 37 -24 38 -27 27 -55 -10 -27 -9 -33 8 -45 19
-14 21 -13 34 17 7 18 26 73 41 122 l29 90 -21 18 c-23 19 -39 22 -54 7z m9
-85 c-8 -25 -17 -45 -20 -45 -11 0 -43 21 -43 29 0 6 64 56 77 60 1 1 -5 -19
-14 -44z"/>
<path d="M1066 4064 c-9 -8 -16 -24 -16 -34 0 -21 25 -50 43 -50 22 0 57 31
57 50 0 24 -26 50 -50 50 -10 0 -26 -7 -34 -16z"/>
<path d="M3986 3951 c-19 -21 -21 -55 -3 -69 35 -29 87 -9 87 33 0 42 -57 66
-84 36z"/>
<path d="M777 3870 l-47 -59 95 -77 c105 -85 93 -84 157 0 31 40 36 52 26 63
-10 12 -19 7 -52 -32 l-41 -47 -22 24 -23 24 30 36 c27 32 28 37 14 49 -14 11
-19 10 -36 -10 -10 -14 -23 -31 -27 -39 -8 -14 -12 -14 -36 2 l-26 17 36 45
c34 42 39 64 12 64 -7 0 -33 -27 -60 -60z"/>
<path d="M4138 3787 c-48 -35 -90 -66 -93 -69 -9 -9 82 -125 103 -130 11 -3
34 1 51 9 29 15 34 23 34 65 0 13 5 16 21 12 29 -7 59 17 59 50 0 28 -61 126
-78 126 -5 0 -49 -29 -97 -63z m122 -21 c27 -52 -24 -80 -56 -31 -16 24 -16
27 2 40 27 20 39 18 54 -9z m-60 -93 c0 -13 -27 -43 -40 -43 -4 0 -20 14 -35
32 l-27 32 28 24 28 24 23 -28 c13 -16 23 -34 23 -41z"/>
<path d="M2490 3809 c-47 -5 -123 -10 -170 -12 -245 -10 -562 -98 -695 -193
-76 -53 -147 -143 -174 -218 -23 -65 -25 -133 -6 -253 l7 -42 1059 0 1059 0
-6 57 c-22 210 -86 328 -244 450 -33 25 -141 80 -171 86 -13 3 -49 14 -79 26
-109 42 -134 50 -214 69 -142 34 -239 42 -366 30z"/>
<path d="M675 3729 c-8 -23 -7 -24 107 -100 64 -43 81 -49 93 -39 8 7 12 16 9
21 -4 8 -149 108 -191 132 -7 4 -14 -1 -18 -14z"/>
<path d="M4365 3642 c-6 -5 -46 -29 -90 -52 -101 -54 -113 -64 -95 -85 11 -14
17 -13 56 9 42 24 44 24 54 6 14 -27 13 -31 -20 -70 -32 -37 -35 -47 -21 -69
7 -10 17 -4 45 25 19 22 36 44 36 51 0 8 12 10 35 6 42 -7 75 17 75 55 0 46
-57 140 -75 124z m20 -81 c18 -36 10 -61 -19 -61 -15 0 -27 9 -35 27 -11 24
-10 29 11 45 29 22 25 23 43 -11z"/>
<path d="M618 3620 c-15 -11 -37 -41 -50 -66 -26 -53 -39 -38 104 -117 84 -46
87 -47 98 -28 9 18 5 23 -29 43 l-39 22 18 36 c29 58 8 111 -50 125 -18 4 -34
0 -52 -15z m60 -42 c14 -14 15 -47 2 -68 -8 -12 -14 -12 -45 3 l-36 17 18 30
c18 32 41 38 61 18z"/>
<path d="M4400 3408 c-88 -24 -122 -81 -93 -157 23 -58 54 -77 123 -71 88 7
143 96 106 168 -29 56 -75 76 -136 60z m87 -61 c27 -28 19 -71 -17 -97 -61
-43 -129 -21 -130 41 0 57 106 97 147 56z"/>
<path d="M456 3315 c-14 -36 -26 -71 -26 -79 0 -16 210 -101 220 -89 6 7 60
139 60 147 0 2 -10 3 -21 2 -16 -1 -26 -13 -39 -46 -15 -37 -22 -45 -41 -42
-36 4 -41 15 -24 61 18 53 18 48 0 55 -12 4 -21 -7 -35 -40 -17 -39 -23 -44
-42 -38 -34 10 -34 10 -11 64 20 48 21 51 3 60 -16 8 -21 1 -44 -55z"/>
<path d="M4562 3192 c-10 -7 -10 -15 -2 -37 13 -35 12 -36 -96 -65 -66 -18
-84 -27 -84 -41 0 -10 4 -20 8 -23 5 -3 49 6 98 19 49 14 92 25 95 25 4 0 9
-13 13 -30 5 -29 28 -40 41 -20 7 12 -42 180 -53 180 -4 0 -13 -4 -20 -8z"/>
<path d="M394 3125 c-27 -41 -29 -96 -4 -122 34 -37 74 -31 109 18 17 22 31
45 33 51 2 6 13 8 26 4 30 -10 29 -50 -3 -82 -25 -25 -24 -54 1 -54 22 0 63
63 65 100 3 47 -15 77 -51 85 -39 9 -69 -10 -95 -59 -14 -26 -26 -36 -40 -34
-26 4 -29 44 -4 69 20 20 16 49 -7 49 -7 0 -21 -11 -30 -25z"/>
<path d="M3076 3053 c-2 -2 -44 -10 -92 -18 -93 -15 -107 -19 -399 -114 -239
-78 -327 -112 -485 -189 -108 -52 -205 -89 -300 -113 -115 -29 -148 -46 -201
-98 -87 -87 -67 -125 136 -262 175 -117 225 -139 378 -164 84 -14 405 -14 427
0 6 4 46 9 88 10 96 4 198 33 327 93 195 89 279 164 352 315 57 117 60 228 9
361 -13 34 -31 82 -41 109 -26 72 -36 78 -121 76 -40 -1 -75 -4 -78 -6z"/>
<path d="M4523 2963 c-27 -10 -6 -103 23 -103 14 0 15 7 9 48 -7 51 -14 62
-32 55z"/>
<path d="M339 2928 c0 -13 -2 -30 -4 -38 -1 -8 -6 -34 -9 -56 l-7 -41 43 -7
c24 -4 61 -9 83 -12 22 -3 55 -10 74 -14 19 -5 36 -8 38 -6 5 4 12 41 18 91 3
22 8 48 11 58 5 15 1 18 -18 15 -19 -2 -24 -11 -31 -55 -5 -29 -14 -53 -20
-53 -28 0 -55 13 -52 23 2 7 6 29 8 50 4 30 2 37 -13 37 -18 0 -30 -26 -30
-67 0 -19 -6 -23 -30 -23 -33 0 -37 13 -21 83 8 35 8 37 -15 37 -18 0 -24 -6
-25 -22z"/>
<path d="M4607 2824 c-1 -1 -31 -5 -67 -9 -88 -9 -100 -13 -100 -37 0 -19 5
-20 56 -16 l55 5 -48 -49 c-44 -45 -48 -53 -48 -96 0 -41 3 -48 26 -59 20 -8
28 -20 31 -47 4 -39 -6 -66 -25 -66 -20 0 -35 -20 -30 -40 4 -17 12 -16 101
15 156 53 149 49 144 84 -4 28 -10 32 -86 58 -44 15 -85 28 -91 29 -5 1 -20 6
-32 11 -21 8 -21 8 10 43 71 77 68 76 131 36 31 -20 59 -36 61 -36 3 0 3 10 2
23 -2 14 -23 35 -55 56 -29 19 -50 36 -48 38 5 6 35 11 64 12 17 1 22 7 22 26
0 23 -4 25 -35 23 -20 -1 -37 -3 -38 -4z m-3 -300 c26 -9 45 -18 43 -20 -2 -2
-24 -10 -50 -18 l-46 -14 2 34 c1 19 2 34 3 34 0 0 22 -7 48 -16z"/>
<path d="M328 2733 c-13 -3 -18 -15 -19 -41 -1 -20 -3 -56 -5 -79 l-4 -43 38
0 c20 -1 76 -3 125 -6 l87 -6 1 63 c0 35 2 72 4 82 2 9 -3 17 -11 17 -8 0 -17
0 -21 0 -9 0 -10 -5 -12 -65 -1 -45 -1 -45 -36 -45 l-36 0 5 49 c4 37 1 51 -9
55 -18 7 -29 -11 -31 -50 -1 -42 -9 -52 -37 -47 -21 4 -23 8 -19 64 2 32 2 58
0 58 -1 -1 -11 -3 -20 -6z"/>
<path d="M4724 2549 c-10 -17 23 -46 37 -32 7 7 9 19 6 27 -7 18 -33 21 -43 5z"/>
<path d="M447 2504 c-1 -2 -35 -4 -75 -5 -68 -2 -72 -3 -72 -26 0 -21 4 -23
45 -23 29 0 45 -4 46 -12 0 -7 2 -32 4 -55 l3 -43 -44 0 c-40 0 -44 -2 -44
-25 0 -25 1 -25 73 -21 39 2 93 4 120 5 44 1 47 3 47 27 0 26 -1 26 -55 22
-61 -5 -55 -11 -59 72 -1 31 2 35 24 36 88 3 87 3 85 27 -1 19 -7 22 -49 22
-26 1 -48 0 -49 -1z"/>
<path d="M4726 2484 c-7 -19 1 -34 19 -34 18 0 26 25 12 39 -15 15 -24 14 -31
-5z"/>
<path d="M4465 2356 c-26 -39 -28 -113 -4 -137 10 -10 25 -19 32 -20 6 0 19
-2 28 -4 8 -1 22 2 30 9 19 13 49 69 49 89 0 15 34 29 44 19 11 -10 6 -68 -6
-80 -8 -8 -8 -15 2 -27 21 -25 42 4 48 65 5 57 -11 84 -53 93 -33 6 -60 -15
-78 -61 -21 -52 -40 -67 -60 -47 -8 8 -14 20 -13 27 6 33 18 57 33 62 12 5 13
9 3 21 -18 22 -37 18 -55 -9z"/>
<path d="M485 2253 c-3 -11 3 -24 19 -37 37 -31 41 -59 13 -91 -18 -22 -32
-28 -69 -28 -25 -1 -53 4 -62 12 -19 16 -21 72 -4 89 10 10 8 16 -5 29 -16 16
-18 16 -32 -2 -14 -20 -17 -31 -17 -60 0 -44 4 -57 31 -87 25 -29 34 -32 83
-31 92 1 146 55 133 133 -9 55 -76 109 -90 73z"/>
<path d="M4415 2094 c-10 -41 -14 -78 -11 -81 15 -15 36 -10 37 8 1 10 2 22 3
27 1 4 6 21 10 39 7 30 9 31 34 22 15 -6 29 -11 32 -12 3 -1 4 -5 3 -9 -2 -4
-5 -25 -9 -47 -6 -37 -4 -41 14 -41 16 0 21 9 26 45 6 39 10 45 31 45 33 0 37
-12 24 -66 -10 -38 -9 -48 2 -55 8 -4 17 -5 21 -1 11 11 38 146 30 154 -4 3
-25 9 -47 12 -22 4 -68 13 -103 21 -35 8 -67 15 -72 15 -5 0 -16 -34 -25 -76z"/>
<path d="M1442 1947 c-15 -19 -24 -94 -24 -192 0 -90 9 -242 17 -280 6 -27 49
-52 126 -70 60 -14 339 -59 439 -71 25 -3 65 -9 90 -14 25 -5 104 -12 176 -15
84 -3 143 -10 167 -20 48 -20 147 -42 222 -50 33 -3 85 -10 115 -15 57 -10
125 -17 222 -24 49 -4 66 0 115 24 32 17 72 30 89 30 33 0 123 27 138 41 6 5
18 9 27 9 33 0 135 68 161 107 31 46 51 108 74 231 18 97 17 118 -17 274 l-11
47 -1058 0 c-829 1 -1060 -2 -1068 -12z"/>
<path d="M4472 1921 c-16 -52 -15 -61 8 -61 14 0 22 11 30 40 6 22 8 45 5 50
-13 21 -32 8 -43 -29z"/>
<path d="M480 1922 c-20 -11 -43 -34 -53 -55 -18 -35 -18 -38 0 -98 10 -34 23
-64 30 -66 10 -4 210 61 221 72 10 10 -43 127 -66 145 -31 25 -86 26 -132 2z
m118 -45 c6 -7 15 -25 21 -40 9 -24 8 -28 -17 -41 -15 -8 -50 -21 -78 -29
l-51 -15 -10 33 c-13 40 1 74 37 92 32 16 85 16 98 0z"/>
<path d="M4330 1811 c0 -5 -3 -16 -6 -24 -4 -11 19 -24 89 -52 l95 -38 -14
-33 c-9 -21 -10 -35 -4 -35 5 -1 15 -2 20 -3 17 -2 79 161 66 174 -17 17 -26
12 -37 -20 -6 -16 -14 -30 -19 -30 -9 0 -65 20 -137 49 -29 11 -53 17 -53 12z"/>
<path d="M595 1660 l-89 -90 17 -28 c9 -15 20 -26 24 -25 12 2 100 12 173 19
51 5 63 4 53 -6 -9 -10 -5 -23 18 -59 l29 -46 -21 -17 c-30 -25 -36 -23 -61
22 -25 44 -30 46 -46 27 -9 -10 -5 -23 14 -51 l25 -37 -23 -18 -23 -19 -27 41
c-16 23 -30 47 -32 52 -2 6 -11 3 -20 -5 -14 -14 -13 -20 20 -70 20 -30 40
-59 45 -64 4 -5 53 19 108 53 l101 63 -16 26 c-8 15 -28 47 -44 72 -16 25 -34
55 -40 68 -8 19 -15 22 -39 17 -26 -5 -31 -2 -50 36 l-22 42 20 21 c19 20 20
66 2 66 -3 0 -46 -41 -96 -90z m62 -56 c9 -19 9 -26 0 -29 -21 -7 -87 -13 -87
-8 0 7 61 63 69 63 3 0 11 -12 18 -26z"/>
<path d="M4281 1647 c-32 -16 -64 -71 -63 -109 1 -41 25 -74 72 -98 73 -37
133 -22 164 42 33 65 10 120 -65 158 -44 23 -74 25 -108 7z m96 -57 c46 -28
57 -53 39 -89 -19 -35 -31 -40 -74 -30 -42 9 -82 45 -82 74 0 59 57 82 117 45z"/>
<path d="M4149 1444 c-14 -17 -9 -24 49 -64 19 -14 20 -17 7 -34 -14 -18 -20
-19 -68 -9 -45 10 -54 9 -65 -5 -11 -15 -9 -19 20 -31 18 -7 48 -14 66 -14 18
-1 31 -6 29 -11 -9 -23 13 -54 44 -65 30 -10 34 -9 66 25 18 20 40 49 48 64
l15 28 -88 59 c-114 78 -108 75 -123 57z m129 -120 c27 -19 27 -24 2 -52 -17
-18 -25 -20 -40 -12 -23 12 -25 32 -8 60 15 24 17 24 46 4z"/>
<path d="M866 1332 c-14 -21 -26 -46 -26 -55 0 -13 -6 -15 -30 -10 -22 4 -36
0 -50 -12 -31 -28 -25 -66 20 -123 37 -46 43 -50 58 -37 9 8 52 42 95 76 67
53 76 63 65 78 -7 9 -13 17 -14 19 0 1 -18 -11 -39 -28 -46 -36 -49 -37 -63
-6 -9 21 -7 30 17 63 24 33 26 42 16 56 -17 23 -19 22 -49 -21z m-13 -126 c15
-22 14 -25 -7 -45 l-24 -22 -21 27 c-24 30 -27 50 -8 57 27 11 45 6 60 -17z"/>
<path d="M3989 1234 c-12 -14 -9 -20 16 -41 17 -14 52 -44 78 -67 l48 -42 -21
-27 c-21 -27 -20 -48 3 -46 7 0 38 31 69 69 52 60 56 69 42 81 -14 11 -19 10
-34 -9 -10 -12 -23 -22 -29 -22 -5 0 -41 27 -79 60 -39 33 -72 60 -75 60 -2 0
-11 -7 -18 -16z"/>
<path d="M1003 1170 c-27 -11 -44 -41 -40 -72 1 -14 -3 -23 -13 -23 -23 0 -47
-18 -54 -41 -7 -22 14 -55 68 -107 l30 -28 54 53 c30 29 67 66 83 81 16 16 29
32 29 36 0 13 -95 99 -115 104 -11 3 -30 2 -42 -3z m74 -62 c28 -26 29 -39 3
-61 -27 -22 -30 -22 -57 10 -26 29 -28 44 -11 61 18 18 39 15 65 -10z m-61
-97 c9 -12 7 -19 -12 -34 -24 -19 -25 -18 -44 5 -24 29 -25 44 -3 57 18 10 36
1 59 -28z"/>
<path d="M3851 1086 c-45 -46 -52 -57 -42 -70 11 -13 18 -9 53 25 l41 40 24
-23 23 -22 -31 -32 c-20 -20 -29 -39 -26 -48 9 -23 22 -20 50 14 30 35 38 37
60 12 16 -17 14 -21 -23 -57 -44 -43 -47 -50 -26 -58 8 -3 38 16 71 48 l57 54
-82 85 c-46 47 -86 86 -90 86 -3 0 -30 -25 -59 -54z"/>
<path d="M3721 879 c-22 -21 -21 -55 3 -71 39 -26 95 16 74 56 -22 41 -44 46
-77 15z"/>
<path d="M1226 874 c-21 -21 -20 -47 2 -67 23 -21 46 -22 66 -1 31 30 9 84
-34 84 -10 0 -26 -7 -34 -16z"/>
<path d="M3533 838 c-13 -16 -8 -94 10 -173 12 -53 16 -60 38 -60 16 0 23 5
20 15 -19 78 -23 104 -25 160 -1 50 -5 66 -17 68 -9 2 -20 -3 -26 -10z"/>
<path d="M1526 763 c-63 -122 -58 -117 -120 -127 -52 -8 -56 -10 -50 -30 9
-29 9 -29 46 -17 42 14 117 17 191 7 53 -7 57 -6 57 13 0 22 -21 31 -83 34
-20 1 -37 7 -37 12 0 6 14 37 30 68 17 32 30 60 30 62 0 2 -9 9 -20 15 -17 9
-22 5 -44 -37z"/>
<path d="M3319 714 c-11 -13 -6 -21 32 -56 24 -22 60 -52 79 -67 19 -14 41
-32 49 -39 11 -11 17 -10 32 4 18 16 16 18 -34 58 -29 22 -69 58 -89 78 -41
42 -50 45 -69 22z"/>
<path d="M3162 643 c-89 -88 -132 -186 -92 -210 18 -12 20 -10 26 15 14 56 54
121 105 166 28 25 55 46 61 46 13 0 0 18 -22 30 -16 9 -29 1 -78 -47z"/>
<path d="M1731 584 c2 -133 5 -144 36 -144 22 0 24 3 18 27 -4 16 -6 72 -6
125 l1 98 -26 0 -25 0 2 -106z"/>
<path d="M1930 571 c-26 -28 -61 -72 -76 -98 -25 -44 -26 -47 -9 -59 17 -12
22 -8 57 46 22 33 57 75 79 93 39 34 39 34 19 52 -20 18 -21 18 -70 -34z"/>
<path d="M2072 596 l-22 -12 31 -47 c17 -26 35 -49 40 -52 4 -3 -13 -35 -40
-72 -50 -67 -57 -103 -20 -103 13 0 17 5 12 16 -5 14 2 16 60 10 36 -4 80 -11
96 -16 23 -6 31 -5 35 7 11 28 6 32 -69 44 -41 6 -75 15 -75 20 0 29 157 139
200 139 15 0 8 21 -11 33 -16 10 -69 -10 -121 -45 l-26 -18 -34 54 c-31 50
-36 53 -56 42z"/>
<path d="M2860 575 c-12 -13 -28 -48 -35 -77 -6 -29 -16 -53 -21 -54 -5 0 -30
-4 -55 -8 -39 -7 -46 -11 -42 -27 6 -20 18 -20 101 -3 19 4 22 0 22 -25 0 -22
-6 -31 -22 -37 -41 -12 -50 -25 -31 -39 11 -8 22 -10 28 -5 6 5 47 19 90 31
44 12 81 22 83 24 1 1 0 9 -3 17 -5 13 -14 14 -47 6 -31 -7 -43 -6 -49 4 -18
28 -8 36 54 45 54 7 62 11 59 28 -2 11 -5 21 -5 22 -1 1 -24 -3 -52 -8 -68
-13 -77 -8 -63 33 6 18 20 41 30 52 22 24 23 32 2 40 -21 8 -17 9 -44 -19z"/>
<path d="M3420 537 c-36 -29 -6 -83 38 -66 28 11 30 54 3 69 -24 12 -22 12
-41 -3z m40 -33 c0 -14 -21 -19 -33 -7 -9 9 13 34 24 27 5 -3 9 -12 9 -20z"/>
<path d="M3212 499 c-13 -21 -3 -31 50 -48 73 -24 80 21 7 49 -44 16 -47 16
-57 -1z"/>
<path d="M1657 488 c-22 -12 -22 -54 0 -66 22 -13 63 6 63 27 0 34 -34 56 -63
39z m43 -33 c0 -8 -9 -15 -20 -15 -11 0 -20 7 -20 15 0 8 9 15 20 15 11 0 20
-7 20 -15z"/>
<path d="M2370 414 l0 -25 138 3 c134 3 137 4 138 25 1 22 -1 22 -137 22
l-139 0 0 -25z"/>
<path d="M1996 352 c-8 -13 10 -52 24 -52 14 0 12 23 -3 45 -10 12 -16 14 -21
7z"/>
</g>
</svg>
